/* XPM */
static char * wxAWDSMapEd_32_xpm[] = {
"32 32 701 2",
"  	c None",
". 	c #BEB085",
"+ 	c #F1E0A9",
"@ 	c #E7D79F",
"# 	c #A99E78",
"$ 	c #756F56",
"% 	c #ADA178",
"& 	c #ECDCA4",
"* 	c #E9D9A0",
"= 	c #B0A47C",
"- 	c #6F6952",
"; 	c #E8D8A3",
"> 	c #F0DFA6",
", 	c #E6D69F",
"' 	c #C5B687",
") 	c #8E8462",
"! 	c #EDDDA5",
"~ 	c #EEDDA0",
"{ 	c #F0E0AB",
"] 	c #EEDEA5",
"^ 	c #EBDBA3",
"/ 	c #E8D8A1",
"( 	c #E5D59D",
"_ 	c #E4D5A2",
": 	c #E0D098",
"< 	c #E0D1A2",
"[ 	c #DCCD9A",
"} 	c #DACB96",
"| 	c #D8C996",
"1 	c #D9CA9B",
"2 	c #E3D49E",
"3 	c #EDDDA3",
"4 	c #EFDFA9",
"5 	c #EEDDA4",
"6 	c #ECDBA7",
"7 	c #DECF99",
"8 	c #C9BA88",
"9 	c #CBBC8B",
"0 	c #EEDDA2",
"a 	c #E7D79D",
"b 	c #C5B787",
"c 	c #716A50",
"d 	c #E5D5A0",
"e 	c #F0DFA5",
"f 	c #E2D39A",
"g 	c #B9AD82",
"h 	c #998F6B",
"i 	c #C3BD8A",
"j 	c #A9A773",
"k 	c #A9A677",
"l 	c #ADA979",
"m 	c #B3AF7F",
"n 	c #B3B07D",
"o 	c #B0AF7C",
"p 	c #A9AB76",
"q 	c #A4A874",
"r 	c #A4AA78",
"s 	c #A3AE7D",
"t 	c #A4B27E",
"u 	c #A8B886",
"v 	c #A6B37F",
"w 	c #9FAC78",
"x 	c #A2AE7B",
"y 	c #ABB782",
"z 	c #B3BE85",
"A 	c #B2BB85",
"B 	c #ADB57B",
"C 	c #A5AC7C",
"D 	c #C7B989",
"E 	c #EBDAA0",
"F 	c #E1D299",
"G 	c #BBAF83",
"H 	c #635E4A",
"I 	c #DBCB95",
"J 	c #EFDEA6",
"K 	c #DDCE97",
"L 	c #AFA47A",
"M 	c #AA9D75",
"N 	c #979C6D",
"O 	c #687452",
"P 	c #646D4E",
"Q 	c #666C4D",
"R 	c #79805C",
"S 	c #808A5E",
"T 	c #748454",
"U 	c #617746",
"V 	c #547042",
"W 	c #56784E",
"X 	c #578659",
"Y 	c #56915F",
"Z 	c #5C9866",
"` 	c #5C9261",
" .	c #518151",
"..	c #56814F",
"+.	c #6E935E",
"@.	c #90A780",
"#.	c #444E3E",
"$.	c #434D3D",
"%.	c #83A072",
"&.	c #BFB282",
"*.	c #EAD9A0",
"=.	c #DECF97",
"-.	c #B3A77B",
";.	c #5C5747",
">.	c #D1C394",
",.	c #EDDCA2",
"'.	c #D9CB98",
").	c #A59A6F",
"!.	c #BBAE7F",
"~.	c #949B6D",
"{.	c #677853",
"].	c #6B7857",
"^.	c #67724F",
"/.	c #7C885F",
"(.	c #869464",
"_.	c #7B8E5A",
":.	c #5F7943",
"<.	c #4A6A39",
"[.	c #4A7144",
"}.	c #5A865E",
"|.	c #5B8B65",
"1.	c #5D8E66",
"2.	c #65916B",
"3.	c #618762",
"4.	c #668760",
"5.	c #809776",
"6.	c #708370",
"7.	c #51D851",
"8.	c #002D00",
"9.	c #779365",
"0.	c #BEB084",
"a.	c #E8D89D",
"b.	c #D9CB97",
"c.	c #AB9F74",
"d.	c #565245",
"e.	c #C4B78C",
"f.	c #ECDB9E",
"g.	c #D4C592",
"h.	c #9D936C",
"i.	c #CCBE8E",
"j.	c #98A372",
"k.	c #6E845E",
"l.	c #788967",
"m.	c #84936F",
"n.	c #93A37A",
"o.	c #97A978",
"p.	c #95AD75",
"q.	c #7F9E65",
"r.	c #658A54",
"s.	c #688D63",
"t.	c #617946",
"u.	c #4F630F",
"v.	c #616654",
"w.	c #586532",
"x.	c #5E7E2B",
"y.	c #5BDB5B",
"z.	c #00C700",
"A.	c #8EA183",
"B.	c #B9AD83",
"C.	c #E8D79C",
"D.	c #D5C692",
"E.	c #A49971",
"F.	c #4F4C44",
"G.	c #BCB085",
"H.	c #CFC08E",
"I.	c #918865",
"J.	c #D9C98F",
"K.	c #909C6C",
"L.	c #647E5B",
"M.	c #667D5D",
"N.	c #7E9271",
"O.	c #8FA47C",
"P.	c #91A979",
"Q.	c #90AD76",
"R.	c #7CA068",
"S.	c #68925C",
"T.	c #749173",
"U.	c #779217",
"V.	c #76F61F",
"W.	c #DFF7D1",
"X.	c #A0F877",
"Y.	c #62F81D",
"Z.	c #B7EB23",
"`.	c #77DF17",
" +	c #178E04",
".+	c #1D251D",
"++	c #ABA78E",
"@+	c #EBDBA4",
"#+	c #D3C491",
"$+	c #9A906B",
"%+	c #474642",
"&+	c #BDB082",
"*+	c #E9D9A4",
"=+	c #C9BA89",
"-+	c #938A65",
";+	c #DCCB94",
">+	c #93A175",
",+	c #59765A",
"'+	c #546F56",
")+	c #6B8568",
"!+	c #7B9572",
"~+	c #7F9B70",
"{+	c #7B9D6B",
"]+	c #628A57",
"^+	c #548252",
"/+	c #749378",
"(+	c #26990F",
"_+	c #11DA08",
":+	c #A3C69E",
"<+	c #54CC51",
"[+	c #06D204",
"}+	c #C7EF27",
"|+	c #27CF07",
"1+	c #000700",
"2+	c #838371",
"3+	c #EDDCA8",
"4+	c #D0C18C",
"5+	c #8C8362",
"6+	c #414140",
"7+	c #B9AC80",
"8+	c #E6D6A0",
"9+	c #C4B687",
"0+	c #988D69",
"a+	c #D2BE85",
"b+	c #9DAD87",
"c+	c #70927F",
"d+	c #6F8E7C",
"e+	c #75937E",
"f+	c #7B997D",
"g+	c #80A07E",
"h+	c #7CA17A",
"i+	c #5E8861",
"j+	c #4E7C57",
"k+	c #74967F",
"l+	c #1A601C",
"m+	c #007300",
"n+	c #5B6E5B",
"o+	c #2D712D",
"p+	c #288528",
"q+	c #CEDC9B",
"r+	c #CBF038",
"s+	c #273507",
"t+	c #687665",
"u+	c #AFA680",
"v+	c #CEBF8D",
"w+	c #80795D",
"x+	c #404040",
"y+	c #B3A77D",
"z+	c #E4D59E",
"A+	c #BFB284",
"B+	c #9A8F66",
"C+	c #E3D197",
"D+	c #9EB091",
"E+	c #779B91",
"F+	c #7B9D93",
"G+	c #7C9D91",
"H+	c #7FA08F",
"I+	c #86A892",
"J+	c #7EA38A",
"K+	c #618972",
"L+	c #517D68",
"M+	c #588674",
"N+	c #7C9B90",
"O+	c #6B8078",
"P+	c #687C72",
"Q+	c #6D8074",
"R+	c #768778",
"S+	c #768574",
"T+	c #626F5E",
"U+	c #3D423D",
"V+	c #84964B",
"W+	c #172204",
"X+	c #7E9B75",
"Y+	c #B1A57F",
"Z+	c #E7D7A0",
"`+	c #CBBC8A",
" @	c #756E57",
".@	c #B2A67D",
"+@	c #E3D49D",
"@@	c #9F9368",
"#@	c #E7D69C",
"$@	c #9DB095",
"%@	c #769D97",
"&@	c #799D99",
"*@	c #70928C",
"=@	c #709289",
"-@	c #73958A",
";@	c #698D82",
">@	c #597E76",
",@	c #557C77",
"'@	c #547C7A",
")@	c #5B8481",
"!@	c #78A29A",
"~@	c #80A89A",
"{@	c #80A590",
"]@	c #91B394",
"^@	c #8EAE86",
"/@	c #86A176",
"(@	c #67755F",
"_@	c #7F9C73",
":@	c #B2A57B",
"<@	c #E5D69E",
"[@	c #C8BA8A",
"}@	c #6B654F",
"|@	c #ACA075",
"1@	c #B3A87D",
"2@	c #A99C70",
"3@	c #ECDBA1",
"4@	c #9CB096",
"5@	c #739B96",
"6@	c #87A9A5",
"7@	c #839A95",
"8@	c #769894",
"9@	c #7A9A99",
"0@	c #739395",
"a@	c #68898E",
"b@	c #678991",
"c@	c #60828B",
"d@	c #55797C",
"e@	c #6C918D",
"f@	c #8EB2A5",
"g@	c #8AAD96",
"h@	c #7D9D7B",
"i@	c #7D9B6E",
"j@	c #8DAA75",
"k@	c #96B07B",
"l@	c #9AB181",
"m@	c #9AB180",
"n@	c #89A77A",
"o@	c #AEA277",
"p@	c #E2D39B",
"q@	c #C7B98A",
"r@	c #66614D",
"s@	c #A3976E",
"t@	c #E3D399",
"u@	c #AFA378",
"v@	c #A7986C",
"w@	c #9FB397",
"x@	c #779F95",
"y@	c #8AA49E",
"z@	c #657470",
"A@	c #8DA7A6",
"B@	c #809FA4",
"C@	c #7E9CA6",
"D@	c #7693A1",
"E@	c #718E9F",
"F@	c #688594",
"G@	c #55747B",
"H@	c #567773",
"I@	c #749586",
"J@	c #829F86",
"K@	c #556252",
"L@	c #6C7860",
"M@	c #A4BC81",
"N@	c #A1BC7A",
"O@	c #99B784",
"P@	c #ABA27C",
"Q@	c #E0D096",
"R@	c #C6B887",
"S@	c #605B49",
"T@	c #A69C74",
"U@	c #E4D49F",
"V@	c #AFA274",
"W@	c #938D6A",
"X@	c #A6B896",
"Y@	c #7BA18E",
"Z@	c #342F26",
"`@	c #732614",
" #	c #7C441C",
".#	c #879BA1",
"+#	c #7D99AA",
"@#	c #7B95A9",
"##	c #7893A7",
"$#	c #718C9C",
"%#	c #678389",
"&#	c #607D77",
"*#	c #587562",
"=#	c #738470",
"-#	c #A3B388",
";#	c #ADC781",
">#	c #A8C58A",
",#	c #A8A887",
"'#	c #DCCC99",
")#	c #C7B887",
"!#	c #605B47",
"~#	c #9A906D",
"{#	c #B1A57A",
"]#	c #7E8A70",
"^#	c #B1C09A",
"/#	c #8A9C8E",
"(#	c #311C10",
"_#	c #EF622F",
":#	c #FDA34A",
"<#	c #18201B",
"[#	c #4F5B5C",
"}#	c #505A5C",
"|#	c #82909B",
"1#	c #819BA9",
"2#	c #87A1A3",
"3#	c #86A296",
"4#	c #6E8A70",
"5#	c #6D8462",
"6#	c #434D3C",
"7#	c #565F49",
"8#	c #ADC183",
"9#	c #A7BF77",
"0#	c #ABC37F",
"a#	c #C3C096",
"b#	c #D2C390",
"c#	c #CABC8C",
"d#	c #66604C",
"e#	c #9D936F",
"f#	c #E5D59E",
"g#	c #B5A87D",
"h#	c #848E70",
"i#	c #ECDCA7",
"j#	c #150E03",
"k#	c #A73819",
"l#	c #3E190B",
"m#	c #E64A20",
"n#	c #D94018",
"o#	c #C6402B",
"p#	c #FDB656",
"q#	c #FC9E45",
"r#	c #AD5520",
"s#	c #3B220C",
"t#	c #5E523F",
"u#	c #A1B7A7",
"v#	c #809978",
"w#	c #6B8355",
"x#	c #778B56",
"y#	c #809257",
"z#	c #8A9B5C",
"A#	c #95A962",
"B#	c #91A75B",
"C#	c #97AD65",
"D#	c #A0B46D",
"E#	c #D0CB9C",
"F#	c #D0C28F",
"G#	c #CDBF8E",
"H#	c #69634D",
"I#	c #E7D7A1",
"J#	c #B8AA7D",
"K#	c #988B63",
"L#	c #583514",
"M#	c #F28236",
"N#	c #9E6830",
"O#	c #F2803B",
"P#	c #D86638",
"Q#	c #F5913F",
"R#	c #EE742E",
"S#	c #CE8138",
"T#	c #859285",
"U#	c #87A078",
"V#	c #97AE79",
"W#	c #A5BC78",
"X#	c #9CB161",
"Y#	c #94A955",
"Z#	c #8EA34F",
"`#	c #84984A",
" $	c #899D54",
".$	c #97A861",
"+$	c #CFC18F",
"@$	c #6C654E",
"#$	c #A29871",
"$$	c #BBAE7D",
"%$	c #E3D5A2",
"&$	c #5C5A4D",
"*$	c #FFEDD5",
"=$	c #FFC579",
"-$	c #FFCF90",
";$	c #FFE3BE",
">$	c #FCE2BF",
",$	c #ED7D46",
"'$	c #CE8D41",
")$	c #8A9888",
"!$	c #A0BA8B",
"~$	c #A5BD80",
"{$	c #ADC479",
"]$	c #AABF6A",
"^$	c #9FB35B",
"/$	c #98AC56",
"($	c #8FA355",
"_$	c #97AB63",
":$	c #A4B46D",
"<$	c #CAC89C",
"[$	c #D5C690",
"}$	c #D2C48F",
"|$	c #716950",
"1$	c #A99D76",
"2$	c #E8D89E",
"3$	c #BFB182",
"4$	c #8B8160",
"5$	c #E8D9A8",
"6$	c #150D04",
"7$	c #8E602D",
"8$	c #BF8B41",
"9$	c #D09747",
"0$	c #B77C3A",
"a$	c #39160A",
"b$	c #414842",
"c$	c #A5C4A4",
"d$	c #AAC694",
"e$	c #9AB572",
"f$	c #95AF5E",
"g$	c #9BB35B",
"h$	c #98AD56",
"i$	c #97AC5B",
"j$	c #92A85E",
"k$	c #99B06D",
"l$	c #A9BA7A",
"m$	c #C1BF92",
"n$	c #DDCE98",
"o$	c #D6C68F",
"p$	c #776F53",
"q$	c #ADA175",
"r$	c #EADAA2",
"s$	c #C5B685",
"t$	c #7D7355",
"u$	c #E8D9AA",
"v$	c #531F0F",
"w$	c #9D321A",
"x$	c #732613",
"y$	c #76361B",
"z$	c #7F5F2B",
"A$	c #865E2C",
"B$	c #D75432",
"C$	c #9D321B",
"D$	c #7E878A",
"E$	c #A9CBAD",
"F$	c #B0D19D",
"G$	c #8DAB66",
"H$	c #7B9644",
"I$	c #87A148",
"J$	c #8AA34D",
"K$	c #8AA254",
"L$	c #849D58",
"M$	c #819C5D",
"N$	c #8DA265",
"O$	c #B9B88D",
"P$	c #E4D39B",
"Q$	c #D9C995",
"R$	c #827957",
"S$	c #45433F",
"T$	c #BBAE80",
"U$	c #CBBD8C",
"V$	c #746C51",
"W$	c #E8D9A6",
"X$	c #707075",
"Y$	c #A8351C",
"Z$	c #E74727",
"`$	c #D74224",
" %	c #AD371D",
".%	c #B0361D",
"+%	c #DB3B25",
"@%	c #541E0E",
"#%	c #93AAB0",
"$%	c #9DBFA8",
"%%	c #B2D3A6",
"&%	c #93B173",
"*%	c #7B974A",
"=%	c #8AA44F",
"-%	c #93AC59",
";%	c #8EA85D",
">%	c #809B58",
",%	c #739051",
"'%	c #7E9657",
")%	c #A3AB8C",
"!%	c #DCCC97",
"~%	c #928764",
"{%	c #494740",
"]%	c #CFC090",
"^%	c #D0C293",
"/%	c #817757",
"(%	c #D3C38F",
"_%	c #AEB2AC",
":%	c #68767E",
"<%	c #CD6656",
"[%	c #DC6A58",
"}%	c #C2ACB6",
"|%	c #728C9A",
"1%	c #84A394",
"2%	c #A8C7A1",
"3%	c #A2BE87",
"4%	c #87A35D",
"5%	c #8EA858",
"6%	c #A4BD6D",
"7%	c #A2BC73",
"8%	c #92AE6A",
"9%	c #83A162",
"0%	c #87A267",
"a%	c #A0A080",
"b%	c #EEDEA7",
"c%	c #DFD09E",
"d%	c #A0946D",
"e%	c #504B40",
"f%	c #E6D6A3",
"g%	c #D3C593",
"h%	c #8A815D",
"i%	c #BEB082",
"j%	c #959B94",
"k%	c #899AAF",
"l%	c #A0B1C8",
"m%	c #9FB0CC",
"n%	c #9EB0D2",
"o%	c #9EB0D8",
"p%	c #9DAFD9",
"q%	c #9DAED8",
"r%	c #9DAFD4",
"s%	c #7B8EB6",
"t%	c #678195",
"u%	c #819E93",
"v%	c #ADC9A7",
"w%	c #B0CB97",
"x%	c #88A25F",
"y%	c #809A4C",
"z%	c #A0BA6B",
"A%	c #A9C47A",
"B%	c #9DBA75",
"C%	c #8BAB6A",
"D%	c #8EA46B",
"E%	c #B6AB81",
"F%	c #F1E0A8",
"G%	c #E0D198",
"H%	c #AA9F75",
"I%	c #555041",
"J%	c #EFDFA8",
"K%	c #EFDEA9",
"L%	c #D5C793",
"M%	c #8C8363",
"N%	c #AB9E77",
"O%	c #EDDCA6",
"P%	c #F1E0AA",
"Q%	c #F1E1AA",
"R%	c #EFDEA4",
"S%	c #EDDC9F",
"T%	c #ECDBA5",
"U%	c #E8D79D",
"V%	c #E8D79E",
"W%	c #EBDA9E",
"X%	c #EDDCA7",
"Y%	c #ECDBA2",
"Z%	c #ECDBA4",
"`%	c #EBDAA2",
" &	c #EAD9A3",
".&	c #E4D49D",
"+&	c #D5C796",
"@&	c #BAAD7F",
"#&	c #C1B485",
"$&	c #F2E2AD",
"%&	c #E3D39D",
"&&	c #B1A67D",
"*&	c #595442",
"=&	c #A99F78",
"-&	c #F1E0AB",
";&	c #D6C893",
">&	c #978D6A",
",&	c #968B67",
"'&	c #EDDCA4",
")&	c #F0DFA7",
"!&	c #F0DFA9",
"~&	c #EEDDA5",
"{&	c #EEDDA1",
"]&	c #EEDEA6",
"^&	c #EDDDA6",
"/&	c #ECDBA3",
"(&	c #E8D7A1",
"_&	c #DACC99",
":&	c #C3B383",
"<&	c #D0C291",
"[&	c #F2E1AC",
"}&	c #B7AA7E",
"|&	c #605A46",
"1&	c #867F65",
"2&	c #A39A78",
"3&	c #938A6C",
"4&	c #6D6652",
"5&	c #575446",
"6&	c #79735F",
"7&	c #928A6E",
"8&	c #958D6F",
"9&	c #968E72",
"0&	c #948C71",
"a&	c #918A6D",
"b&	c #908970",
"c&	c #898268",
"d&	c #7D7762",
"e&	c #736E5B",
"f&	c #736D5B",
"g&	c #7C7660",
"h&	c #857F66",
"i&	c #8D856A",
"j&	c #8F876A",
"k&	c #ABA17E",
"l&	c #847D64",
"m&	c #817A62",
"n&	c #76715B",
"o&	c #AEA380",
"p&	c #C3B78C",
"q&	c #978E6C",
"r&	c #5C5847",
"                                                                ",
"                                                                ",
"                                                                ",
"  . + @ # $                                           % & * = - ",
"  ; > , ' ) ! ~ { ] ^ / ( _ : < [ } | 1 2 3 4 5 6 7 8 9 0 a b c ",
"  d e f g h i j k l m n o p q r s t u v w x y z A B C D E F G H ",
"  I J K L M N O P Q R S T U V W X Y Z `  ...+.@.#.$.%.&.*.=.-.;.",
"  >.,.'.).!.~.{.].^./.(._.:.<.[.}.|.1.2.3.4.5.6.7.8.9.0.a.b.c.d.",
"  e.f.g.h.i.j.k.l.m.n.o.p.q.r.s.t.u.v.w.w.u.x.y.z.8.A.B.C.D.E.F.",
"  G.^ H.I.J.K.L.M.N.O.P.Q.R.S.T.U.V.W.X.X.Y.Z.`.`. +.+++@+#+$+%+",
"  &+*+=+-+;+>+,+'+)+!+~+{+]+^+/+(+_+:+<+<+[+}+}+}+|+1+2+3+4+5+6+",
"  7+8+9+0+a+b+c+d+e+f+g+h+i+j+k+l+m+n+o+o+m+p+q+r+s+t+u+* v+w+x+",
"  y+z+A+B+C+D+E+F+G+H+I+J+K+L+M+N+O+P+Q+R+S+T+U+V+W+X+Y+Z+`+ @x+",
"  .@+@7+@@#@$@%@&@*@=@-@;@>@,@'@)@!@~@{@]@^@/@(@1+1+_@:@<@[@}@x+",
"  |@2 1@2@3@4@5@6@7@8@9@0@a@b@c@d@e@f@g@h@i@j@k@l@m@n@o@p@q@r@x+",
"  s@t@u@v@3@w@x@y@z@A@B@C@D@E@F@G@H@I@J@K@1+1+L@M@N@O@P@Q@R@S@x+",
"  T@U@V@W@3@X@Y@Z@`@ #.#+#@###$#%#&#*#=#1+1+1+1+-#;#>#,#'#)#!#x+",
"  ~#z+{#]#3@^#/#(#_#:#<#[#}#|#1#2#3#4#5#6#1+1+7#8#9#0#a#b#c#d#x+",
"  e#f#g#h#i#j#k#l#m#n#o#p#q#r#s#t#u#v#w#x#y#z#A#B#C#D#E#F#G#H#x+",
"  E.I#J#K#i#L#M#N#O#P#Q#p#p#p#R#S#T#U#V#W#X#Y#Z#`# $.$E#b#+$@$x+",
"  #$a $$0+%$&$*$=$*$=$*$-$;$>$,$'$)$!$~${$]$^$/$($_$:$<$[$}$|$x+",
"  1$2$3$4$5$6$7$8$8$8$9$p#p#0$a$b$c$d$e$f$g$h$i$j$k$l$m$n$o$p$6+",
"  q$r$s$t$u$v$w$x$x$`@y$z$A$B$C$D$E$F$G$H$I$J$K$L$M$N$O$P$Q$R$S$",
"  T$@+U$V$W$X$Y$Z$Z$Z$`$ %.%+%@%#%$%%%&%*%=%-%;%>%,%'%)%C.!%~%{%",
"  ]%@+^%/%(%_%:%<%[%[%[%[%[%[%}%|%1%2%3%4%5%6%7%8%9%0%a%b%c%d%e%",
"  f%,.g%h%i%j%k%l%m%n%o%p%q%r%s%t%u%v%w%x%y%z%A%B%C%D%E%F%G%H%I%",
"  J%K%L%M%N%O%P%Q%R%S%T%E U%@ V%C.C.W%X%Y%Z%`% &.&+&@&#&$&%&&&*&",
"=&-&4 ;&>&,&'&)&)&P%!&J R%] ~&~&0 {&]&]&5 ^&! /&(&_&:&<&[&<@}&|&",
"  1&2&3&4&5&6&7&8&9&0&a&b&c&d&e&f&g&h&i&j&d&k&c&l&m&n&j&o&p&q&r&",
"                                                                ",
"                                                                ",
"                                                                "};
