/* XPM */
static char * misc_05m_xpm[] = {
"80 128 2 1",
" 	c #000000",
".	c #FFFFFF",
"................................................................................",
"...................             ...................             ................",
"..           .....               .................               ...............",
"..            ....               .................               ...............",
"..            ....               .................               ...............",
"..            ....               .................               ...............",
"..            ....               .................               ...............",
"..            ....               .................               ...............",
"..             ...               .................               ...............",
"..             ...               .................               ...............",
"..             ...               .................               ...............",
"..             ...               .................               ...............",
"..            ....               .................               ...............",
"...          .....               .................               ...............",
"........    ......               .................               ...............",
"...................             ...................             ................",
"      ......            ....................................      ..............",
"      ......            ....................................      ..............",
"      ......            ....................................      ..............",
"      ......            ....................................      ..............",
"     ........          ......................................     ..............",
"    ..........        ........................................    ..............",
"................................................................................",
"................................................................................",
"................................................................................",
"................................................................................",
"................................................................................",
"................................................................................",
"    ............................................................................",
"     ...........................................................................",
"      ..........................................................................",
"      ..........................................................................",
"      ..........................................................................",
"      ..........................................................................",
"................................................................................",
"................................................................................",
"................................................................................",
"................................................................................",
"................................................................................",
"................................................................................",
"................................................................................",
"................................................................................",
"................................................................................",
"................................................................................",
"................................................................................",
"................................................................................",
"................................................................................",
"................................................................................",
"................................................................................",
"................................................................................",
"................................................................................",
"................................................................................",
"................................................................................",
"................................................................................",
"................................................................................",
"................................................................................",
"................................................................................",
"................................................................................",
"..................    ........................................    ..............",
"..................     ......................................     ..............",
"..................      ....................................      ..............",
"..................      ....................................      ..............",
"..................      ....................................      ..............",
"..................      ....................................      ..............",
"      .......................      .......................      ................",
"      .......................      .......................      ................",
"      .......................      .......................      ................",
"      .......................      .......................      ................",
"     .........................    .........................     ................",
"    ........................................................    ................",
"................................................................................",
"................................................................................",
"................................................................................",
"................................................................................",
"................................................................................",
"................................................................................",
"................................................................................",
"................................................................................",
"................................................................................",
"................................................................................",
"................................................................................",
"................................................................................",
"................................................................................",
"................................................................................",
"................................................................................",
"................................................................................",
"................................................................................",
"................................................................................",
"................................................................................",
"................................................................................",
"................................................................................",
"................................................................................",
"................................................................................",
"    ........................................................    ................",
"     ......................................................     ................",
"     ......................................................     ................",
"     ......................................................     ................",
"     ......................................................     ................",
"    ........................................................    ................",
"................................................................................",
"................................................................................",
"................................................................................",
"................................................................................",
"................................................................................",
"................................................................................",
"................................................................................",
"................................................................................",
"................................................................................",
"................................................................................",
"................................................................................",
"................................................................................",
"................................................................................",
"................................................................................",
"................................................................................",
"................................................................................",
"................................................................................",
"................................................................................",
"................................................................................",
"................................................................................",
"................................................................................",
"................................................................................",
"................................................................................",
"    ........................................................    ................",
"     .........................    .........................     ................",
"      .......................      .......................      ................",
"      .......................      .......................      ................",
"      .......................      .......................      ................",
"      .......................      .......................      ................"};
