/* XPM */
static char * wxAWDSMapEd_16_xpm[] = {
"16 16 182 2",
"  	c None",
". 	c #827A5D",
"+ 	c #C2B58B",
"@ 	c #8A8267",
"# 	c #8A8269",
"$ 	c #A89E7B",
"% 	c #8E876C",
"& 	c #91896E",
"* 	c #CBBE8F",
"= 	c #A79E7B",
"- 	c #938B70",
"; 	c #968E72",
"> 	c #65604F",
", 	c #A89E7A",
"' 	c #887E60",
") 	c #E9D9A4",
"! 	c #BFB384",
"~ 	c #DDCE9A",
"{ 	c #EAD9A2",
"] 	c #EBDBA3",
"^ 	c #EBDAA2",
"/ 	c #E9D89E",
"( 	c #E9D8A0",
"_ 	c #EAD99F",
": 	c #ECDBA4",
"< 	c #EFDEA6",
"[ 	c #EEDDA7",
"} 	c #9A8F6B",
"| 	c #E1D19D",
"1 	c #B5A983",
"2 	c #7E7659",
"3 	c #E7D7A0",
"4 	c #BBB48A",
"5 	c #EADAA3",
"6 	c #EDDDA6",
"7 	c #EEDDA6",
"8 	c #EDDCA4",
"9 	c #EEDDA5",
"0 	c #EDDDA5",
"a 	c #EDDCA3",
"b 	c #EFDEA7",
"c 	c #A79A71",
"d 	c #DECF9A",
"e 	c #928A6F",
"f 	c #6A644F",
"g 	c #E0D099",
"h 	c #BEBD8F",
"i 	c #F0DFA7",
"j 	c #E9DBAE",
"k 	c #E2D6AC",
"l 	c #EFE0AC",
"m 	c #AEA278",
"n 	c #D9CA96",
"o 	c #79735D",
"p 	c #706A53",
"q 	c #D8C993",
"r 	c #D0CA96",
"s 	c #E6DAAE",
"t 	c #85783A",
"u 	c #665401",
"v 	c #655300",
"w 	c #B4AA83",
"x 	c #D2C8A4",
"y 	c #B9AB80",
"z 	c #D3C48F",
"A 	c #646052",
"B 	c #D0C28F",
"C 	c #D2CDA2",
"D 	c #979773",
"E 	c #E1CE59",
"F 	c #FEC806",
"G 	c #FFC700",
"H 	c #AD8900",
"I 	c #89720C",
"J 	c #CEC4A1",
"K 	c #BEB082",
"L 	c #CFC08E",
"M 	c #5E5B4F",
"N 	c #CFC398",
"O 	c #877F4A",
"P 	c #D9C77E",
"Q 	c #FFFDB5",
"R 	c #FEE864",
"S 	c #F9C201",
"T 	c #9C8422",
"U 	c #B6B388",
"V 	c #CBBD8C",
"W 	c #D1C59B",
"X 	c #5F4F00",
"Y 	c #FFE28F",
"Z 	c #FFF8F1",
"` 	c #FEF796",
" .	c #FEC601",
"..	c #F2BD00",
"+.	c #927D23",
"@.	c #DED2AA",
"#.	c #C1B585",
"$.	c #C9BA89",
"%.	c #605C4F",
"&.	c #D3C79D",
"*.	c #5F4F01",
"=.	c #FEE28B",
"-.	c #FEF7F8",
";.	c #F5B101",
">.	c #E18301",
",.	c #E08301",
"'.	c #E79301",
").	c #F6BE01",
"!.	c #695A11",
"~.	c #CABD93",
"{.	c #656152",
"].	c #D6C99F",
"^.	c #FFE65E",
"/.	c #FFFFA7",
"(.	c #FEF792",
"_.	c #F7B500",
":.	c #E28600",
"<.	c #DF7F00",
"[.	c #DE7E01",
"}.	c #ED9E00",
"|.	c #5F4E00",
"1.	c #C0B58D",
"2.	c #726D5B",
"3.	c #918969",
"4.	c #DACEA2",
"5.	c #FFDC3E",
"6.	c #FFEC6F",
"7.	c #FEE761",
"8.	c #F4AF00",
"9.	c #E99700",
"0.	c #E79100",
"a.	c #BAAF89",
"b.	c #D6C895",
"c.	c #7E7761",
"d.	c #938B69",
"e.	c #DBCEA3",
"f.	c #54370F",
"g.	c #F2AB11",
"h.	c #F1A701",
"i.	c #FABD00",
"j.	c #C18A00",
"k.	c #322D00",
"l.	c #B9AF8A",
"m.	c #DDCE98",
"n.	c #867F68",
"o.	c #857C5D",
"p.	c #E1D29F",
"q.	c #968A7C",
"r.	c #5A3C0F",
"s.	c #665300",
"t.	c #675401",
"u.	c #393200",
"v.	c #96927A",
"w.	c #B3A881",
"x.	c #E2D39C",
"y.	c #928966",
"z.	c #E5D59B",
"A.	c #CAC29A",
"B.	c #DFD3AA",
"C.	c #E0D4AB",
"D.	c #E0D4AC",
"E.	c #E1D5AC",
"F.	c #E1D5AB",
"G.	c #EDDEAB",
"H.	c #AA9E76",
"I.	c #E7D79E",
"J.	c #978E70",
"K.	c #918867",
"L.	c #E3D39D",
"M.	c #A39874",
"N.	c #A09676",
"O.	c #A79D7C",
"P.	c #A19777",
"Q.	c #90886D",
"R.	c #8E866C",
"S.	c #938B6F",
"T.	c #989072",
"U.	c #9D9476",
"V.	c #A99F7B",
"W.	c #958B6A",
"X.	c #E3D49F",
"Y.	c #948B6E",
". + @ # $ % &   * = - ; % > ,   ",
"' ) ! ~ { ] ^ / ( _ : < [ } | 1 ",
"2 3 4 5 6 7 8 9 0 a 7 < b c d e ",
"f g h i j k k k l i i i i m n o ",
"p q r s t u v v w x i i i y z A ",
"  B C D E F G G H I J i i K L M ",
"  N O P Q R G G G S T x i U V   ",
"  W X Y Z ` G G G  ...+.@.#.$.%.",
"  &.*.=.-.` ;.>.>.,.'.).!.~.V {.",
"  ].X ^./.(._.:.<.[.<.}.|.1.B 2.",
"3.4.X 5.6.7.G 8.9.,.0.}.|.a.b.c.",
"d.e.f.g.G  .G G G h.i.j.k.l.m.n.",
"o.p.q.r.s.t.s.s.s.t.s.u.v.w.x.% ",
"y.z.A.B.C.C.D.C.E.F.E.E.G.H.I.J.",
"K.L.M.N.O.P.Q.R.S.T.U.O.V.W.X.Y.",
"                                "};
