/* XPM */
static char * xpmNotebookSelected[] = {
"23 23 73 1",
" 	c #CAC6B9",
".	c #B6B2A7",
"+	c #B5B1A7",
"@	c #B9B5AA",
"#	c #C0BCAE",
"$	c #C1BDAF",
"%	c #C2BEB0",
"&	c #C3BFB1",
"*	c #C4C0B2",
"=	c #C5C1B3",
"-	c #C6C2B4",
";	c #C6C2B7",
">	c #CCC8BA",
",	c #CDC9BB",
"'	c #CECABC",
")	c #CFCBBD",
"!	c #D0CCBE",
"~	c #D1CDBF",
"{	c #C8C3B8",
"]	c #B6B3A7",
"^	c #D2CEC0",
"/	c #D3CFC1",
"(	c #C9C5B9",
"_	c #B6B3A8",
":	c #D4D0C2",
"<	c #C9C5BA",
"[	c #B7B3A8",
"}	c #CAC5BA",
"|	c #B7B3A9",
"1	c #D5D1C3",
"2	c #CAC6BB",
"3	c #B8B4AA",
"4	c #D6D2C4",
"5	c #CBC7BC",
"6	c #B9B5AB",
"7	c #C7C3B5",
"8	c #D7D3C5",
"9	c #CCC8BD",
"0	c #BAB5AC",
"a	c #CDC8BE",
"b	c #BAB6AD",
"c	c #C8C4B6",
"d	c #D8D4C6",
"e	c #CDC9BF",
"f	c #BAB7AD",
"g	c #C9C5B7",
"h	c #D9D5C7",
"i	c #CECABF",
"j	c #CAC6B8",
"k	c #CECAC0",
"l	c #BAB8AD",
"m	c #CBC7B9",
"n	c #DAD6C8",
"o	c #CECBC0",
"p	c #BBB9AE",
"q	c #DBD7C9",
"r	c #CFCCC1",
"s	c #BCB9AF",
"t	c #D0CCC2",
"u	c #BDBAB1",
"v	c #DCD8CA",
"w	c #DDD9CB",
"x	c #D1CEC3",
"y	c #BFBCB3",
"z	c #DEDACC",
"A	c #DFDBCD",
"B	c #D3D0C5",
"C	c #C0BDB3",
"D	c #E0DCCE",
"E	c #D4D1C6",
"F	c #C5C3B9",
"G	c #D4D2C7",
"H	c #D5D3C8",
" .++++++++++++++++++++@",
".##$$$$%%%%%%&&&*==---;",
".$>>>>,,,,,'')))!!~~~~{",
"]&,,,,,'')))!!~~^^^^^/(",
"_&,,))))))))))))))))/:<",
"[&,,))))))))))))))))::}",
"|*')))))))))))))))))112",
"|*')))))))))))))))))112",
"3=!~))))))))))))))))445",
"3-!~))))))))))))))))445",
"67^^))))))))))))))))889",
"07^/))))))))))))))))88a",
"07^/))))))))))))))))88a",
"bc:1))))))))))))))))dde",
"fg14))))))))))))))))hhi",
"fj44))))))))))))))))hhk",
"lm88))))))))))))))))nno",
"p,dh))))))))))))))))qqr",
"s,dh))))))))))))))))qqt",
"u)qv))))))))))))))))wwx",
"y^zzAAAAAAAAAAAAAAAAAAB",
"C/ADDDDDDDDDDDDDDDDDDDE",
"FGHHHHHHHHHHHHHHHHHHHHH"};
