/* XPM */
static char * xpmBucket[] = {
"16 15 128 2",
"  	c None",
". 	c #F9F8F4",
"+ 	c #858377",
"@ 	c #7C7B6F",
"# 	c #BDBCB3",
"$ 	c #E7E3D8",
"% 	c #79786D",
"& 	c #D2D0BD",
"* 	c #65645B",
"= 	c #E8E6D3",
"- 	c #E9E6D8",
"; 	c #6A6960",
"> 	c #CAC9BD",
", 	c #505049",
"' 	c #DDDBCA",
") 	c #D9D8CD",
"! 	c #767674",
"~ 	c #DBDBDB",
"{ 	c #1E1E1E",
"] 	c #838179",
"^ 	c #EAE6D4",
"/ 	c #F3F3F2",
"( 	c #575754",
"_ 	c #9F9F9F",
": 	c #E6E6E6",
"< 	c #383838",
"[ 	c #9B9994",
"} 	c #A09C8F",
"| 	c #E2D5CE",
"1 	c #F6EDEA",
"2 	c #F8F6F4",
"3 	c #D3D3CD",
"4 	c #DADADA",
"5 	c #F6F6F6",
"6 	c #F7F7F7",
"7 	c #7D7D7D",
"8 	c #D9D9D9",
"9 	c #939292",
"0 	c #74463B",
"a 	c #D05C3F",
"b 	c #BA5B45",
"c 	c #B17763",
"d 	c #DEDAC7",
"e 	c #FAF6E6",
"f 	c #F5F5F5",
"g 	c #A7A7A7",
"h 	c #E9E9E9",
"i 	c #FDFDFD",
"j 	c #D2D2D2",
"k 	c #8F8F8F",
"l 	c #CCCCCC",
"m 	c #BFBFBF",
"n 	c #8A6960",
"o 	c #B1533C",
"p 	c #C0563E",
"q 	c #BC7461",
"r 	c #CDB09B",
"s 	c #E8E1CC",
"t 	c #F3F2F1",
"u 	c #51514C",
"v 	c #DDDDDD",
"w 	c #FFFFFF",
"x 	c #A8A8A8",
"y 	c #717171",
"z 	c #CBCBCB",
"A 	c #C2C2C2",
"B 	c #C1C1C1",
"C 	c #9A9894",
"D 	c #9B8479",
"E 	c #D17D65",
"F 	c #BD7360",
"G 	c #B29C8B",
"H 	c #F1F1F0",
"I 	c #FBFBFB",
"J 	c #CACACA",
"K 	c #6D6D6D",
"L 	c #BDBDBD",
"M 	c #A2A2A2",
"N 	c #8F8E87",
"O 	c #B66550",
"P 	c #C17967",
"Q 	c #AA9080",
"R 	c #B9B8B3",
"S 	c #6D6D6C",
"T 	c #EFEFEF",
"U 	c #FAFAFA",
"V 	c #878787",
"W 	c #44433E",
"X 	c #9A988A",
"Y 	c #C3C1B1",
"Z 	c #8B5545",
"` 	c #AD4B35",
" .	c #9A806F",
"..	c #E8E7E3",
"+.	c #EBEBEB",
"@.	c #ECECEC",
"#.	c #C5C5C5",
"$.	c #C7C7C7",
"%.	c #6B6B6A",
"&.	c #5B5A52",
"*.	c #B7B4A4",
"=.	c #DDDBCE",
"-.	c #945D4D",
";.	c #AA3D26",
">.	c #F9F8F3",
",.	c #CDCDCD",
"'.	c #808080",
").	c #4A4944",
"!.	c #A4A192",
"~.	c #D4D1C0",
"{.	c #AB8276",
"].	c #BD3315",
"^.	c #A38270",
"/.	c #D4D2C3",
"(.	c #5C5C5B",
"_.	c #605D55",
":.	c #BCB8A8",
"<.	c #E5E2D2",
"[.	c #A78278",
"}.	c #C13517",
"|.	c #A68471",
"1.	c #FBFAF6",
"2.	c #605F56",
"3.	c #ABA89A",
"4.	c #D6D2C1",
"5.	c #98847D",
"6.	c #812E1B",
"7.	c #99897B",
"        . + @ #                 ",
"        $ % & * =               ",
"        - ; > , '               ",
"        ) ! ~ { ] ^             ",
"      / ( _ : < [ } | 1 2       ",
"    3 ( 4 5 6 7 8 9 0 a b c d e ",
"  f ( g h i j k l m n o p q r s ",
"t u v 5 w w x y z A B C D E F G ",
"H u v I w w J K j L M ( N O P Q ",
"  R S T I U : l 8 V W X Y Z `  .",
"  ..( ] +.@.4 #.$.%.&.*.=.-.;. .",
"    >.( ] z ,.'.).!.~.    {.].^.",
"      /.u ] ] (._.:.<.    [.}.|.",
"        1.( 2.3.4.        5.6.7.",
"          /.3.                  "};
