/* XPM */
static char * xpmCirclefill[] = {
"16 15 6 1",
" 	c None",
".	c #000000",
"+	c #DADADA",
"@	c #808080",
"#	c #27AFF7",
"$	c #1FC7FF",
"     .....+     ",
"    .@@@@@.+    ",
"   .@@#$###.+   ",
"  .@@$###$$$.+  ",
"  .@##$#$##$.@+ ",
" .@@###$####$.+ ",
" .@##$$$####$.@ ",
" .@$$##$$$$$$.@+",
" +.######$##.@@+",
"  .@####$###.@++",
"  +.+##$$##.@@+ ",
"   +.#$##$.@@++ ",
"    +.....@@++  ",
"     +@@@@@++   ",
"       +++++    "};
