/* XPM */
static char * xpmCircle[] = {
"16 15 4 1",
" 	c None",
".	c #000000",
"+	c #DADADA",
"@	c #808080",
"     .....+     ",
"    .@@@@@.+    ",
"   .@@+++++.+   ",
"  .@@++     .+  ",
"  .@++      .@+ ",
" .@@+        .+ ",
" .@++        .@ ",
" .@+         .@+",
" +.+        .@@+",
"  .@        .@++",
"  +.+      .@@+ ",
"   +.     .@@++ ",
"    +.....@@++  ",
"     +@@@@@++   ",
"       +++++    "};
