/* XPM */
static char * xpmPencil[] = {
"16 15 89 1",
" 	c None",
".	c #23231C",
"+	c #000000",
"@	c #DBD9CD",
"#	c #534E48",
"$	c #43201B",
"%	c #56231B",
"&	c #B2B1A6",
"*	c #A39F91",
"=	c #807169",
"-	c #A05A4F",
";	c #AA4A3C",
">	c #525148",
",	c #F6F2DD",
"'	c #F2F0E4",
")	c #4D4340",
"!	c #9D4332",
"~	c #B73825",
"{	c #A8685C",
"]	c #43413A",
"^	c #E5E1CF",
"/	c #D8D6CC",
"(	c #6F6563",
"_	c #B45848",
":	c #B85243",
"<	c #7C5751",
"[	c #E6E3D1",
"}	c #E0DED2",
"|	c #696051",
"1	c #E1BD6F",
"2	c #E3CC86",
"3	c #9D9A98",
"4	c #463B33",
"5	c #C6C4B2",
"6	c #FBF8E6",
"7	c #ADA99B",
"8	c #8D7B57",
"9	c #DBA934",
"0	c #EFCE6A",
"a	c #6C6A69",
"b	c #695B4F",
"c	c #D4D2C0",
"d	c #F3F1E7",
"e	c #615A4A",
"f	c #EEBD5A",
"g	c #D3AC40",
"h	c #C0AF7A",
"i	c #26241D",
"j	c #BFBCAA",
"k	c #FAF7E3",
"l	c #D9D7CC",
"m	c #8D8066",
"n	c #E8B64D",
"o	c #D4B14D",
"p	c #837857",
"q	c #4F4E46",
"r	c #D1CEBC",
"s	c #FFFCE9",
"t	c #73726D",
"u	c #B48E60",
"v	c #C99B57",
"w	c #B7AC89",
"x	c #3D3B2A",
"y	c #C5C3B2",
"z	c #F8F6E2",
"A	c #666158",
"B	c #B38E65",
"C	c #D2AD7C",
"D	c #7F7866",
"E	c #696551",
"F	c #D6D3C3",
"G	c #DEDBCD",
"H	c #463C32",
"I	c #CABCAA",
"J	c #605A4E",
"K	c #887D66",
"L	c #FCF8E4",
"M	c #332D25",
"N	c #807A6F",
"O	c #6C685D",
"P	c #B2AA93",
"Q	c #DDDBC9",
"R	c #68665C",
"S	c #C4C1B1",
"T	c #F3F1DC",
"U	c #EEECDC",
"V	c #56544C",
"W	c #A3A092",
"X	c #E0DDCC",
"        .++     ",
"       @#$%&    ",
"       *=-;>,   ",
"      ')!~{]^   ",
"      /(_:<>[   ",
"     }|123456   ",
"     7890abc    ",
"    defghijk    ",
"    lmnopqrs    ",
"    tuvwxyz     ",
"    ABCDEF      ",
"   GHIJKyL      ",
"   GMNOPQ       ",
"   G+RST        ",
"   UVWX         "};
