/* XPM */
static char * xpmSelector[] = {
"16 15 3 1",
" 	c None",
".	c #000000",
"+	c #FFFFFF",
"                ",
" ...++....++... ",
" .            . ",
" .            . ",
" +            + ",
" +            + ",
" .            . ",
" .            . ",
" .            . ",
" +            + ",
" +            + ",
" .            . ",
" .            . ",
" ...++....++... ",
"                "};
