/* XPM */
static char * xpmSquare[] = {
"16 15 4 1",
" 	c None",
".	c #000000",
"+	c #808080",
"@	c #DADADA",
"                ",
"  ...........   ",
"  .+++++++++.+  ",
"  .+@@@@@@@@.+@ ",
"  .+@       .+@ ",
"  .+@       .+@ ",
"  .+@       .+@ ",
"  .+@       .+@ ",
"  .+@       .+@ ",
"  .+@       .+@ ",
"  .+@       .+@ ",
"  ...........+@ ",
"   +++++++++++@ ",
"    @@@@@@@@@@@ ",
"                "};
