/* XPM */
static char * xpmSquarefill[] = {
"16 15 6 1",
" 	c None",
".	c #000000",
"+	c #808080",
"@	c #1FC7FF",
"#	c #27AFF7",
"$	c #DADADA",
"                ",
"  ...........   ",
"  .+++++++++.+  ",
"  .+@@#@@##@.+$ ",
"  .+##@####@.+$ ",
"  .+##@##@##.+$ ",
"  .+@##@@###.+$ ",
"  .+@@@#####.+$ ",
"  .+@@@@@###.+$ ",
"  .+#####@#@.+$ ",
"  .+@##@####.+$ ",
"  ...........+$ ",
"   +++++++++++$ ",
"    $$$$$$$$$$$ ",
"                "};
